<?xml version='1.0' encoding='utf-8'?>
<svg xmlns="http://www.w3.org/2000/svg" version="1.1" width="1920" height="1080" preserveAspectRatio="none" viewBox="0 0 1920 1080"><g mask="url(&quot;#SvgjsMask1165&quot;)" fill="none"><rect width="1920" height="1080" x="0" y="0" fill="url(&quot;#SvgjsLinearGradient1166&quot;)" /><g mask="url(&quot;#SvgjsMask1167&quot;)"><path d="M112.5 607.5L157.5 562.5L202.5 562.5M67.5 562.5L112.5 562.5L157.5 517.5M-22.5 562.5L22.5 562.5L67.5 562.5L112.5 607.5L157.5 607.5L202.5 607.5" stroke="rgba(90, 213, 213, 0.76)" stroke-width="7.5" /><path d="M191.25 607.5 a11.25 11.25 0 1 0 22.5 0 a11.25 11.25 0 1 0 -22.5 0zM191.25 562.5 a11.25 11.25 0 1 0 22.5 0 a11.25 11.25 0 1 0 -22.5 0zM146.25 517.5 a11.25 11.25 0 1 0 22.5 0 a11.25 11.25 0 1 0 -22.5 0z" fill="rgba(90, 213, 213, 0.76)" /><path d="M-22.5 517.5L22.5 517.5L67.5 517.5L112.5 472.5L157.5 472.5" stroke="rgba(58, 82, 195, 0.68)" stroke-width="7.5" /><path d="M146.25 472.5 a11.25 11.25 0 1 0 22.5 0 a11.25 11.25 0 1 0 -22.5 0z" fill="rgba(58, 82, 195, 0.68)" /><path d="M-22.5 607.5L22.5 607.5L67.5 607.5L112.5 652.5L157.5 652.5" stroke="rgba(58, 82, 195, 0.68)" stroke-width="7.5" /><path d="M146.25 652.5 a11.25 11.25 0 1 0 22.5 0 a11.25 11.25 0 1 0 -22.5 0z" fill="rgba(58, 82, 195, 0.68)" /><path d="M292.5 427.5L337.5 382.5L382.5 382.5M247.5 427.5L292.5 472.5L337.5 472.5L382.5 472.5M202.5 427.5L247.5 472.5L292.5 517.5M-22.5 472.5L22.5 472.5L67.5 472.5L112.5 427.5L157.5 427.5L202.5 427.5L247.5 427.5L292.5 427.5L337.5 427.5" stroke="rgba(90, 213, 213, 0.76)" stroke-width="7.5" /><path d="M326.25 427.5 a11.25 11.25 0 1 0 22.5 0 a11.25 11.25 0 1 0 -22.5 0zM371.25 382.5 a11.25 11.25 0 1 0 22.5 0 a11.25 11.25 0 1 0 -22.5 0zM371.25 472.5 a11.25 11.25 0 1 0 22.5 0 a11.25 11.25 0 1 0 -22.5 0zM281.25 517.5 a11.25 11.25 0 1 0 22.5 0 a11.25 11.25 0 1 0 -22.5 0z" fill="rgba(90, 213, 213, 0.76)" /><path d="M292.5 697.5L337.5 742.5L382.5 742.5M247.5 697.5L292.5 652.5M202.5 697.5L247.5 652.5L292.5 607.5L337.5 607.5L382.5 607.5M-22.5 652.5L22.5 652.5L67.5 652.5L112.5 697.5L157.5 697.5L202.5 697.5L247.5 697.5L292.5 697.5L337.5 697.5" stroke="rgba(58, 82, 195, 0.68)" stroke-width="7.5" /><path d="M326.25 697.5 a11.25 11.25 0 1 0 22.5 0 a11.25 11.25 0 1 0 -22.5 0zM371.25 742.5 a11.25 11.25 0 1 0 22.5 0 a11.25 11.25 0 1 0 -22.5 0zM281.25 652.5 a11.25 11.25 0 1 0 22.5 0 a11.25 11.25 0 1 0 -22.5 0zM371.25 607.5 a11.25 11.25 0 1 0 22.5 0 a11.25 11.25 0 1 0 -22.5 0z" fill="rgba(58, 82, 195, 0.68)" /><path d="M247.5 382.5L292.5 382.5M202.5 382.5L247.5 337.5M292.5 337.5L337.5 292.5M-22.5 427.5L22.5 427.5L67.5 427.5L112.5 382.5L157.5 382.5L202.5 382.5L247.5 382.5L292.5 337.5L337.5 337.5L382.5 337.5" stroke="rgba(58, 82, 195, 0.68)" stroke-width="7.5" /><path d="M371.25 337.5 a11.25 11.25 0 1 0 22.5 0 a11.25 11.25 0 1 0 -22.5 0zM281.25 382.5 a11.25 11.25 0 1 0 22.5 0 a11.25 11.25 0 1 0 -22.5 0zM236.25 337.5 a11.25 11.25 0 1 0 22.5 0 a11.25 11.25 0 1 0 -22.5 0zM326.25 292.5 a11.25 11.25 0 1 0 22.5 0 a11.25 11.25 0 1 0 -22.5 0z" fill="rgba(58, 82, 195, 0.68)" /><path d="M112.5 742.5L157.5 787.5M22.5 697.5L67.5 742.5L112.5 787.5M-22.5 697.5L22.5 697.5L67.5 697.5L112.5 742.5L157.5 742.5L202.5 742.5" stroke="rgba(58, 82, 195, 0.68)" stroke-width="7.5" /><path d="M191.25 742.5 a11.25 11.25 0 1 0 22.5 0 a11.25 11.25 0 1 0 -22.5 0zM146.25 787.5 a11.25 11.25 0 1 0 22.5 0 a11.25 11.25 0 1 0 -22.5 0zM101.25 787.5 a11.25 11.25 0 1 0 22.5 0 a11.25 11.25 0 1 0 -22.5 0z" fill="rgba(58, 82, 195, 0.68)" /><path d="M-22.5 382.5L22.5 382.5L67.5 382.5L112.5 337.5" stroke="rgba(58, 82, 195, 0.68)" stroke-width="7.5" /><path d="M101.25 337.5 a11.25 11.25 0 1 0 22.5 0 a11.25 11.25 0 1 0 -22.5 0z" fill="rgba(58, 82, 195, 0.68)" /><path d="M157.5 292.5L202.5 337.5M-22.5 337.5L22.5 337.5L67.5 337.5L112.5 292.5L157.5 292.5L202.5 292.5L247.5 292.5" stroke="rgba(58, 82, 195, 0.68)" stroke-width="7.5" /><path d="M236.25 292.5 a11.25 11.25 0 1 0 22.5 0 a11.25 11.25 0 1 0 -22.5 0zM191.25 337.5 a11.25 11.25 0 1 0 22.5 0 a11.25 11.25 0 1 0 -22.5 0z" fill="rgba(58, 82, 195, 0.68)" /><path d="M-22.5 787.5L22.5 787.5" stroke="rgba(58, 82, 195, 0.68)" stroke-width="7.5" /><path d="M11.25 787.5 a11.25 11.25 0 1 0 22.5 0 a11.25 11.25 0 1 0 -22.5 0z" fill="rgba(58, 82, 195, 0.68)" /><path d="M202.5 247.5L247.5 202.5L292.5 202.5L337.5 202.5M157.5 247.5L202.5 202.5M112.5 247.5L157.5 202.5L202.5 157.5L247.5 157.5L292.5 157.5M-22.5 292.5L22.5 292.5L67.5 292.5L112.5 247.5L157.5 247.5L202.5 247.5L247.5 247.5" stroke="rgba(90, 213, 213, 0.76)" stroke-width="7.5" /><path d="M236.25 247.5 a11.25 11.25 0 1 0 22.5 0 a11.25 11.25 0 1 0 -22.5 0zM326.25 202.5 a11.25 11.25 0 1 0 22.5 0 a11.25 11.25 0 1 0 -22.5 0zM191.25 202.5 a11.25 11.25 0 1 0 22.5 0 a11.25 11.25 0 1 0 -22.5 0zM281.25 157.5 a11.25 11.25 0 1 0 22.5 0 a11.25 11.25 0 1 0 -22.5 0z" fill="rgba(90, 213, 213, 0.76)" /></g></g><defs><mask id="SvgjsMask1165"><rect width="1920" height="1080" fill="#ffffff" /></mask><linearGradient x1="10.94%" y1="-19.44%" x2="89.06%" y2="119.44%" gradientUnits="userSpaceOnUse" id="SvgjsLinearGradient1166"><stop stop-color="rgba(25, 14, 71, 1)" offset="0" /><stop stop-color="rgba(0, 0, 0, 1)" offset="1" /></linearGradient><mask id="SvgjsMask1167"><rect width="1920" height="1080" fill="white" /><path d="M196.87 607.5 a5.63 5.63 0 1 0 11.26 0 a5.63 5.63 0 1 0 -11.26 0zM196.87 562.5 a5.63 5.63 0 1 0 11.26 0 a5.63 5.63 0 1 0 -11.26 0zM151.87 517.5 a5.63 5.63 0 1 0 11.26 0 a5.63 5.63 0 1 0 -11.26 0z" fill="black" /><path d="M151.87 472.5 a5.63 5.63 0 1 0 11.26 0 a5.63 5.63 0 1 0 -11.26 0z" fill="black" /><path d="M151.87 652.5 a5.63 5.63 0 1 0 11.26 0 a5.63 5.63 0 1 0 -11.26 0z" fill="black" /><path d="M331.87 427.5 a5.63 5.63 0 1 0 11.26 0 a5.63 5.63 0 1 0 -11.26 0zM376.87 382.5 a5.63 5.63 0 1 0 11.26 0 a5.63 5.63 0 1 0 -11.26 0zM376.87 472.5 a5.63 5.63 0 1 0 11.26 0 a5.63 5.63 0 1 0 -11.26 0zM286.87 517.5 a5.63 5.63 0 1 0 11.26 0 a5.63 5.63 0 1 0 -11.26 0z" fill="black" /><path d="M331.87 697.5 a5.63 5.63 0 1 0 11.26 0 a5.63 5.63 0 1 0 -11.26 0zM376.87 742.5 a5.63 5.63 0 1 0 11.26 0 a5.63 5.63 0 1 0 -11.26 0zM286.87 652.5 a5.63 5.63 0 1 0 11.26 0 a5.63 5.63 0 1 0 -11.26 0zM376.87 607.5 a5.63 5.63 0 1 0 11.26 0 a5.63 5.63 0 1 0 -11.26 0z" fill="black" /><path d="M376.87 337.5 a5.63 5.63 0 1 0 11.26 0 a5.63 5.63 0 1 0 -11.26 0zM286.87 382.5 a5.63 5.63 0 1 0 11.26 0 a5.63 5.63 0 1 0 -11.26 0zM241.87 337.5 a5.63 5.63 0 1 0 11.26 0 a5.63 5.63 0 1 0 -11.26 0zM331.87 292.5 a5.63 5.63 0 1 0 11.26 0 a5.63 5.63 0 1 0 -11.26 0z" fill="black" /><path d="M196.87 742.5 a5.63 5.63 0 1 0 11.26 0 a5.63 5.63 0 1 0 -11.26 0zM151.87 787.5 a5.63 5.63 0 1 0 11.26 0 a5.63 5.63 0 1 0 -11.26 0zM106.87 787.5 a5.63 5.63 0 1 0 11.26 0 a5.63 5.63 0 1 0 -11.26 0z" fill="black" /><path d="M106.87 337.5 a5.63 5.63 0 1 0 11.26 0 a5.63 5.63 0 1 0 -11.26 0z" fill="black" /><path d="M241.87 292.5 a5.63 5.63 0 1 0 11.26 0 a5.63 5.63 0 1 0 -11.26 0zM196.87 337.5 a5.63 5.63 0 1 0 11.26 0 a5.63 5.63 0 1 0 -11.26 0z" fill="black" /><path d="M16.87 787.5 a5.63 5.63 0 1 0 11.26 0 a5.63 5.63 0 1 0 -11.26 0z" fill="black" /><path d="M241.87 247.5 a5.63 5.63 0 1 0 11.26 0 a5.63 5.63 0 1 0 -11.26 0zM331.87 202.5 a5.63 5.63 0 1 0 11.26 0 a5.63 5.63 0 1 0 -11.26 0zM196.87 202.5 a5.63 5.63 0 1 0 11.26 0 a5.63 5.63 0 1 0 -11.26 0zM286.87 157.5 a5.63 5.63 0 1 0 11.26 0 a5.63 5.63 0 1 0 -11.26 0z" fill="black" /></mask></defs><g mask="url(&quot;#SvgjsMask1182&quot;)" fill="none"><g mask="url(&quot;#SvgjsMask1183&quot;)"><path d="M1912.5 562.5L1867.5 562.5L1822.5 562.5L1777.5 562.5M1957.5 562.5L1912.5 562.5L1867.5 517.5" stroke="rgba(90, 213, 213, 0.76)" stroke-width="7.5" /><path d="M1856.25 517.5 a11.25 11.25 0 1 0 22.5 0 a11.25 11.25 0 1 0 -22.5 0zM1766.25 562.5 a11.25 11.25 0 1 0 22.5 0 a11.25 11.25 0 1 0 -22.5 0z" fill="rgba(90, 213, 213, 0.76)" /><path d="M1957.5 517.5L1912.5 517.5L1867.5 472.5" stroke="rgba(90, 213, 213, 0.76)" stroke-width="7.5" /><path d="M1856.25 472.5 a11.25 11.25 0 1 0 22.5 0 a11.25 11.25 0 1 0 -22.5 0z" fill="rgba(90, 213, 213, 0.76)" /><path d="M1777.5 607.5L1732.5 652.5M1822.5 607.5L1777.5 652.5M1732.5 607.5L1687.5 607.5L1642.5 607.5L1597.5 607.5M1957.5 607.5L1912.5 607.5L1867.5 607.5L1822.5 607.5L1777.5 607.5L1732.5 607.5L1687.5 652.5" stroke="rgba(90, 213, 213, 0.76)" stroke-width="7.5" /><path d="M1676.25 652.5 a11.25 11.25 0 1 0 22.5 0 a11.25 11.25 0 1 0 -22.5 0zM1721.25 652.5 a11.25 11.25 0 1 0 22.5 0 a11.25 11.25 0 1 0 -22.5 0zM1766.25 652.5 a11.25 11.25 0 1 0 22.5 0 a11.25 11.25 0 1 0 -22.5 0zM1586.25 607.5 a11.25 11.25 0 1 0 22.5 0 a11.25 11.25 0 1 0 -22.5 0z" fill="rgba(90, 213, 213, 0.76)" /><path d="M1597.5 472.5L1552.5 517.5M1732.5 427.5L1687.5 382.5L1642.5 337.5L1597.5 337.5M1822.5 427.5L1777.5 472.5L1732.5 472.5M1957.5 472.5L1912.5 472.5L1867.5 427.5L1822.5 427.5L1777.5 427.5L1732.5 427.5L1687.5 427.5L1642.5 472.5L1597.5 472.5L1552.5 472.5" stroke="rgba(58, 82, 195, 0.68)" stroke-width="7.5" /><path d="M1541.25 472.5 a11.25 11.25 0 1 0 22.5 0 a11.25 11.25 0 1 0 -22.5 0zM1541.25 517.5 a11.25 11.25 0 1 0 22.5 0 a11.25 11.25 0 1 0 -22.5 0zM1586.25 337.5 a11.25 11.25 0 1 0 22.5 0 a11.25 11.25 0 1 0 -22.5 0zM1721.25 472.5 a11.25 11.25 0 1 0 22.5 0 a11.25 11.25 0 1 0 -22.5 0z" fill="rgba(58, 82, 195, 0.68)" /><path d="M1867.5 652.5L1822.5 652.5M1957.5 652.5L1912.5 652.5L1867.5 652.5L1822.5 697.5L1777.5 697.5L1732.5 697.5" stroke="rgba(90, 213, 213, 0.76)" stroke-width="7.5" /><path d="M1721.25 697.5 a11.25 11.25 0 1 0 22.5 0 a11.25 11.25 0 1 0 -22.5 0zM1811.25 652.5 a11.25 11.25 0 1 0 22.5 0 a11.25 11.25 0 1 0 -22.5 0z" fill="rgba(90, 213, 213, 0.76)" /><path d="M1957.5 427.5L1912.5 427.5L1867.5 382.5" stroke="rgba(58, 82, 195, 0.68)" stroke-width="7.5" /><path d="M1856.25 382.5 a11.25 11.25 0 1 0 22.5 0 a11.25 11.25 0 1 0 -22.5 0z" fill="rgba(58, 82, 195, 0.68)" /><path d="M1912.5 697.5L1867.5 742.5M1957.5 697.5L1912.5 697.5L1867.5 697.5L1822.5 742.5L1777.5 742.5" stroke="rgba(90, 213, 213, 0.76)" stroke-width="7.5" /><path d="M1766.25 742.5 a11.25 11.25 0 1 0 22.5 0 a11.25 11.25 0 1 0 -22.5 0zM1856.25 742.5 a11.25 11.25 0 1 0 22.5 0 a11.25 11.25 0 1 0 -22.5 0z" fill="rgba(90, 213, 213, 0.76)" /><path d="M1957.5 382.5L1912.5 382.5L1867.5 337.5" stroke="rgba(90, 213, 213, 0.76)" stroke-width="7.5" /><path d="M1856.25 337.5 a11.25 11.25 0 1 0 22.5 0 a11.25 11.25 0 1 0 -22.5 0z" fill="rgba(90, 213, 213, 0.76)" /><path d="M1822.5 292.5L1777.5 337.5M1957.5 337.5L1912.5 337.5L1867.5 292.5L1822.5 292.5L1777.5 292.5" stroke="rgba(90, 213, 213, 0.76)" stroke-width="7.5" /><path d="M1766.25 292.5 a11.25 11.25 0 1 0 22.5 0 a11.25 11.25 0 1 0 -22.5 0zM1766.25 337.5 a11.25 11.25 0 1 0 22.5 0 a11.25 11.25 0 1 0 -22.5 0z" fill="rgba(90, 213, 213, 0.76)" /><path d="M1867.5 787.5L1822.5 832.5L1777.5 832.5L1732.5 832.5L1687.5 787.5M1912.5 787.5L1867.5 832.5L1822.5 877.5L1777.5 877.5L1732.5 877.5M1687.5 742.5L1642.5 697.5L1597.5 697.5M1957.5 787.5L1912.5 787.5L1867.5 787.5L1822.5 787.5L1777.5 787.5L1732.5 787.5L1687.5 742.5L1642.5 742.5L1597.5 742.5L1552.5 742.5" stroke="rgba(58, 82, 195, 0.68)" stroke-width="7.5" /><path d="M1541.25 742.5 a11.25 11.25 0 1 0 22.5 0 a11.25 11.25 0 1 0 -22.5 0zM1676.25 787.5 a11.25 11.25 0 1 0 22.5 0 a11.25 11.25 0 1 0 -22.5 0zM1721.25 877.5 a11.25 11.25 0 1 0 22.5 0 a11.25 11.25 0 1 0 -22.5 0zM1586.25 697.5 a11.25 11.25 0 1 0 22.5 0 a11.25 11.25 0 1 0 -22.5 0z" fill="rgba(58, 82, 195, 0.68)" /><path d="M1957.5 292.5L1912.5 292.5" stroke="rgba(58, 82, 195, 0.68)" stroke-width="7.5" /><path d="M1901.25 292.5 a11.25 11.25 0 1 0 22.5 0 a11.25 11.25 0 1 0 -22.5 0z" fill="rgba(58, 82, 195, 0.68)" /></g></g><defs><mask id="SvgjsMask1182"><rect width="1920" height="1080" fill="#ffffff" /></mask><mask id="SvgjsMask1183"><rect width="1920" height="1080" fill="white" /><path d="M1861.87 517.5 a5.63 5.63 0 1 0 11.26 0 a5.63 5.63 0 1 0 -11.26 0zM1771.87 562.5 a5.63 5.63 0 1 0 11.26 0 a5.63 5.63 0 1 0 -11.26 0z" fill="black" /><path d="M1861.87 472.5 a5.63 5.63 0 1 0 11.26 0 a5.63 5.63 0 1 0 -11.26 0z" fill="black" /><path d="M1681.87 652.5 a5.63 5.63 0 1 0 11.26 0 a5.63 5.63 0 1 0 -11.26 0zM1726.87 652.5 a5.63 5.63 0 1 0 11.26 0 a5.63 5.63 0 1 0 -11.26 0zM1771.87 652.5 a5.63 5.63 0 1 0 11.26 0 a5.63 5.63 0 1 0 -11.26 0zM1591.87 607.5 a5.63 5.63 0 1 0 11.26 0 a5.63 5.63 0 1 0 -11.26 0z" fill="black" /><path d="M1546.87 472.5 a5.63 5.63 0 1 0 11.26 0 a5.63 5.63 0 1 0 -11.26 0zM1546.87 517.5 a5.63 5.63 0 1 0 11.26 0 a5.63 5.63 0 1 0 -11.26 0zM1591.87 337.5 a5.63 5.63 0 1 0 11.26 0 a5.63 5.63 0 1 0 -11.26 0zM1726.87 472.5 a5.63 5.63 0 1 0 11.26 0 a5.63 5.63 0 1 0 -11.26 0z" fill="black" /><path d="M1726.87 697.5 a5.63 5.63 0 1 0 11.26 0 a5.63 5.63 0 1 0 -11.26 0zM1816.87 652.5 a5.63 5.63 0 1 0 11.26 0 a5.63 5.63 0 1 0 -11.26 0z" fill="black" /><path d="M1861.87 382.5 a5.63 5.63 0 1 0 11.26 0 a5.63 5.63 0 1 0 -11.26 0z" fill="black" /><path d="M1771.87 742.5 a5.63 5.63 0 1 0 11.26 0 a5.63 5.63 0 1 0 -11.26 0zM1861.87 742.5 a5.63 5.63 0 1 0 11.26 0 a5.63 5.63 0 1 0 -11.26 0z" fill="black" /><path d="M1861.87 337.5 a5.63 5.63 0 1 0 11.26 0 a5.63 5.63 0 1 0 -11.26 0z" fill="black" /><path d="M1771.87 292.5 a5.63 5.63 0 1 0 11.26 0 a5.63 5.63 0 1 0 -11.26 0zM1771.87 337.5 a5.63 5.63 0 1 0 11.26 0 a5.63 5.63 0 1 0 -11.26 0z" fill="black" /><path d="M1546.87 742.5 a5.63 5.63 0 1 0 11.26 0 a5.63 5.63 0 1 0 -11.26 0zM1681.87 787.5 a5.63 5.63 0 1 0 11.26 0 a5.63 5.63 0 1 0 -11.26 0zM1726.87 877.5 a5.63 5.63 0 1 0 11.26 0 a5.63 5.63 0 1 0 -11.26 0zM1591.87 697.5 a5.63 5.63 0 1 0 11.26 0 a5.63 5.63 0 1 0 -11.26 0z" fill="black" /><path d="M1906.87 292.5 a5.63 5.63 0 1 0 11.26 0 a5.63 5.63 0 1 0 -11.26 0z" fill="black" /></mask></defs></svg>